<svg xmlns="http://www.w3.org/2000/svg" width="24" height="24" fill="none" viewBox="0 0 24 24"><path fill="url(#a)" d="M12 1.5C6.225 1.5 1.5 6.249 1.5 12.053c0 5.208 3.854 9.534 8.82 10.447v-7.492H7.695v-2.955h2.625V9.73c0-2.638 1.68-4.115 4.095-4.115.735 0 1.575.105 2.31.21v2.692H15.36c-1.26 0-1.575.633-1.575 1.477v2.058h2.782l-.472 2.954h-2.31v7.482c4.961-.918 8.715-5.228 8.715-10.436C22.5 6.249 17.775 1.5 12 1.5Z"/><defs><linearGradient id="a" x1="12" x2="12" y1="21.872" y2="1.5" gradientUnits="userSpaceOnUse"><stop stop-color="#0062E0"/><stop offset="1" stop-color="#19AFFF"/></linearGradient></defs></svg>