<svg xmlns="http://www.w3.org/2000/svg" width="20" height="20" fill="none" viewBox="0 0 20 20"><path fill="#4285F4" d="M10.178 8.41v3.388h4.806c-.211 1.09-.845 2.012-1.794 2.633l2.898 2.203c1.688-1.527 2.662-3.77 2.662-6.435a9.86 9.86 0 0 0-.162-1.79h-8.41Z"/><path fill="#34A853" d="m5.175 11.665-.654.49-2.313 1.767a8.947 8.947 0 0 0 7.97 4.828c2.411 0 4.432-.78 5.91-2.116l-2.898-2.203c-.796.525-1.81.843-3.012.843-2.321 0-4.293-1.535-5-3.603l-.003-.005Z"/><path fill="#FBBC05" d="M2.208 6.079a8.502 8.502 0 0 0 0 7.843c0 .008 2.97-2.26 2.97-2.26A5.149 5.149 0 0 1 4.895 10c0-.58.106-1.138.285-1.663L2.208 6.08Z"/><path fill="#EA4335" d="M10.179 4.734c1.314 0 2.483.446 3.417 1.305l2.557-2.506c-1.55-1.416-3.564-2.283-5.974-2.283a8.932 8.932 0 0 0-7.971 4.828l2.97 2.26c.707-2.069 2.68-3.604 5-3.604Z"/></svg>