<svg xmlns="http://www.w3.org/2000/svg" fill="none" width="24" height="24" viewBox="0 0 24 24"><path fill="url(#a)" d="M18.042 7.427a2.402 2.402 0 0 0-.58-.892 2.4 2.4 0 0 0-.891-.58c-.273-.106-.683-.232-1.44-.266-.816-.037-1.062-.045-3.133-.045h-.696c-1.445 0-1.721.01-2.437.042-.756.034-1.166.16-1.439.266-.362.14-.62.309-.892.58-.27.272-.439.53-.58.892-.106.273-.232.683-.266 1.44-.037.817-.045 1.06-.045 3.132 0 2.071.008 2.316.045 3.134.034.756.162 1.166.267 1.44.14.361.308.62.58.891.27.272.53.44.891.58.273.107.683.233 1.44.268.816.037 1.062.046 3.132.046 2.071 0 2.317-.009 3.134-.046.756-.034 1.166-.16 1.439-.266a2.4 2.4 0 0 0 .891-.58c.272-.272.44-.529.58-.89.107-.273.233-.684.267-1.44.037-.817.045-1.063.045-3.132 0-2.07-.008-2.315-.045-3.133-.034-.756-.162-1.166-.267-1.44Zm-6.044 8.556a3.982 3.982 0 1 1 0-7.963 3.982 3.982 0 0 1 0 7.963Zm4.138-7.19a.93.93 0 1 1 .001-1.862.93.93 0 0 1 0 1.861Z"/><path fill="url(#b)" d="M18.042 7.427a2.402 2.402 0 0 0-.58-.892 2.4 2.4 0 0 0-.891-.58c-.273-.106-.683-.232-1.44-.266-.816-.037-1.062-.045-3.133-.045h-.696c-1.445 0-1.721.01-2.437.042-.756.034-1.166.16-1.439.266-.362.14-.62.309-.892.58-.27.272-.439.53-.58.892-.106.273-.232.683-.266 1.44-.037.817-.045 1.06-.045 3.132 0 2.071.008 2.316.045 3.134.034.756.162 1.166.267 1.44.14.361.308.62.58.891.27.272.53.44.891.58.273.107.683.233 1.44.268.816.037 1.062.046 3.132.046 2.071 0 2.317-.009 3.134-.046.756-.034 1.166-.16 1.439-.266a2.4 2.4 0 0 0 .891-.58c.272-.272.44-.529.58-.89.107-.273.233-.684.267-1.44.037-.817.045-1.063.045-3.132 0-2.07-.008-2.315-.045-3.133-.034-.756-.162-1.166-.267-1.44Zm-6.044 8.556a3.982 3.982 0 1 1 0-7.963 3.982 3.982 0 0 1 0 7.963Zm4.138-7.19a.93.93 0 1 1 .001-1.862.93.93 0 0 1 0 1.861Z"/><path fill="url(#c)" d="M11.998 14.586a2.584 2.584 0 1 0 0-5.17 2.584 2.584 0 0 0 0 5.17Z"/><path fill="url(#d)" d="M11.998 14.586a2.584 2.584 0 1 0 0-5.17 2.584 2.584 0 0 0 0 5.17Z"/><path fill="url(#e)" d="M22.48 6.05c-.066-.842-.21-1.41-.505-2.009a4.172 4.172 0 0 0-.9-1.23c-.694-.665-1.544-1.069-2.556-1.214-.491-.071-.588-.092-3.098-.097h-3.418c-4.383 0-5.666.005-5.914.026-.9.074-1.46.216-2.07.52a4.19 4.19 0 0 0-1.206.884c-.667.691-1.07 1.54-1.216 2.554-.071.491-.092.591-.097 3.098v3.414c0 4.381.005 5.662.026 5.911.073.876.21 1.427.5 2.03a4.424 4.424 0 0 0 2.867 2.342c.433.111.911.172 1.525.202.26.01 2.91.019 5.563.019 2.652 0 5.304-.003 5.557-.016.711-.034 1.124-.089 1.58-.207a4.397 4.397 0 0 0 2.867-2.347c.284-.588.43-1.16.496-1.99.014-.181.019-3.067.019-5.947s-.006-5.761-.021-5.942h.002Zm-2.776 9.148c-.039.825-.17 1.39-.36 1.882a3.8 3.8 0 0 1-.895 1.373 3.8 3.8 0 0 1-1.373.895c-.492.192-1.058.323-1.883.36-.827.038-1.09.047-3.196.047s-2.37-.01-3.197-.047c-.825-.037-1.389-.168-1.881-.36a3.801 3.801 0 0 1-1.373-.895 3.816 3.816 0 0 1-.895-1.373c-.192-.493-.321-1.057-.36-1.882-.037-.827-.047-1.09-.047-3.197s.01-2.37.047-3.197c.037-.826.168-1.39.36-1.882.199-.51.464-.942.895-1.374a3.79 3.79 0 0 1 1.373-.893c.492-.192 1.056-.323 1.881-.36.827-.037 1.092-.047 3.195-.047h.003c2.105 0 2.368.01 3.195.047.825.037 1.39.168 1.883.36.51.197.942.462 1.373.893.431.432.696.865.895 1.374.19.492.321 1.056.36 1.882.037.827.047 1.092.047 3.197s-.01 2.37-.047 3.197Z"/><path fill="url(#f)" d="M22.48 6.05c-.066-.842-.21-1.41-.505-2.009a4.172 4.172 0 0 0-.9-1.23c-.694-.665-1.544-1.069-2.556-1.214-.491-.071-.588-.092-3.098-.097h-3.418c-4.383 0-5.666.005-5.914.026-.9.074-1.46.216-2.07.52a4.19 4.19 0 0 0-1.206.884c-.667.691-1.07 1.54-1.216 2.554-.071.491-.092.591-.097 3.098v3.414c0 4.381.005 5.662.026 5.911.073.876.21 1.427.5 2.03a4.424 4.424 0 0 0 2.867 2.342c.433.111.911.172 1.525.202.26.01 2.91.019 5.563.019 2.652 0 5.304-.003 5.557-.016.711-.034 1.124-.089 1.58-.207a4.397 4.397 0 0 0 2.867-2.347c.284-.588.43-1.16.496-1.99.014-.181.019-3.067.019-5.947s-.006-5.761-.021-5.942h.002Zm-2.776 9.148c-.039.825-.17 1.39-.36 1.882a3.8 3.8 0 0 1-.895 1.373 3.8 3.8 0 0 1-1.373.895c-.492.192-1.058.323-1.883.36-.827.038-1.09.047-3.196.047s-2.37-.01-3.197-.047c-.825-.037-1.389-.168-1.881-.36a3.801 3.801 0 0 1-1.373-.895 3.816 3.816 0 0 1-.895-1.373c-.192-.493-.321-1.057-.36-1.882-.037-.827-.047-1.09-.047-3.197s.01-2.37.047-3.197c.037-.826.168-1.39.36-1.882.199-.51.464-.942.895-1.374a3.79 3.79 0 0 1 1.373-.893c.492-.192 1.056-.323 1.881-.36.827-.037 1.092-.047 3.195-.047h.003c2.105 0 2.368.01 3.195.047.825.037 1.39.168 1.883.36.51.197.942.462 1.373.893.431.432.696.865.895 1.374.19.492.321 1.056.36 1.882.037.827.047 1.092.047 3.197s-.01 2.37-.047 3.197Z"/><defs><radialGradient id="a" cx="0" cy="0" r="1" gradientTransform="matrix(0 -20.8126 19.3573 0 7.078 24.117)" gradientUnits="userSpaceOnUse"><stop stop-color="#FD5"/><stop offset=".1" stop-color="#FD5"/><stop offset=".5" stop-color="#FF543E"/><stop offset="1" stop-color="#C837AB"/></radialGradient><radialGradient id="b" cx="0" cy="0" r="1" gradientTransform="matrix(1.82603 9.12233 -37.60265 7.527 -2.018 3.013)" gradientUnits="userSpaceOnUse"><stop stop-color="#3771C8"/><stop offset=".128" stop-color="#3771C8"/><stop offset="1" stop-color="#60F" stop-opacity="0"/></radialGradient><radialGradient id="c" cx="0" cy="0" r="1" gradientTransform="matrix(0 -20.8126 19.3573 0 7.078 24.117)" gradientUnits="userSpaceOnUse"><stop stop-color="#FD5"/><stop offset=".1" stop-color="#FD5"/><stop offset=".5" stop-color="#FF543E"/><stop offset="1" stop-color="#C837AB"/></radialGradient><radialGradient id="d" cx="0" cy="0" r="1" gradientTransform="matrix(1.82603 9.12233 -37.60265 7.527 -2.018 3.013)" gradientUnits="userSpaceOnUse"><stop stop-color="#3771C8"/><stop offset=".128" stop-color="#3771C8"/><stop offset="1" stop-color="#60F" stop-opacity="0"/></radialGradient><radialGradient id="e" cx="0" cy="0" r="1" gradientTransform="matrix(0 -20.8126 19.3573 0 7.078 24.117)" gradientUnits="userSpaceOnUse"><stop stop-color="#FD5"/><stop offset=".1" stop-color="#FD5"/><stop offset=".5" stop-color="#FF543E"/><stop offset="1" stop-color="#C837AB"/></radialGradient><radialGradient id="f" cx="0" cy="0" r="1" gradientTransform="matrix(1.82603 9.12233 -37.60265 7.527 -2.018 3.013)" gradientUnits="userSpaceOnUse"><stop stop-color="#3771C8"/><stop offset=".128" stop-color="#3771C8"/><stop offset="1" stop-color="#60F" stop-opacity="0"/></radialGradient></defs></svg>