<svg xmlns="http://www.w3.org/2000/svg" width="24" height="24" fill="none" viewBox="0 0 24 24"><path fill="#EE1D52" d="M6.338 14.844c.117-.97.515-1.513 1.265-2.07 1.074-.755 2.414-.328 2.414-.328V9.915c.326-.009.652.01.974.057v3.258s-1.34-.427-2.413.328c-.75.557-1.148 1.1-1.265 2.07-.004.528.095 1.216.55 1.812a4.415 4.415 0 0 1-.344-.197c-1.003-.674-1.186-1.684-1.18-2.399Zm10.188-9.61c-.738-.809-1.017-1.626-1.118-2.2h.929S16.152 4.54 17.5 6.019l.019.02a5.35 5.35 0 0 1-.994-.804ZM21 7.528v3.192s-1.185-.047-2.062-.27c-1.224-.312-2.012-.79-2.012-.79s-.543-.342-.587-.366v6.592c0 .367-.1 1.284-.407 2.048-.4 1-1.018 1.657-1.131 1.791 0 0-.751.887-2.076 1.485-1.194.539-2.242.525-2.555.539 0 0-1.812.072-3.443-.988a6.843 6.843 0 0 1-.983-.79l.008.006c1.63 1.06 3.443.988 3.443.988.313-.014 1.362 0 2.555-.54 1.324-.597 2.076-1.484 2.076-1.484.112-.135.732-.791 1.13-1.791a6.408 6.408 0 0 0 .408-2.049v-6.59c.044.024.587.365.587.365s.787.479 2.012.79c.877.224 2.062.27 2.062.27V7.435c.405.09.75.115.975.093Z"/><path fill="#000" d="M20.025 7.435v2.5s-1.184-.046-2.062-.27c-1.224-.311-2.012-.79-2.012-.79s-.543-.341-.587-.365v6.592c0 .367-.1 1.284-.407 2.048-.4 1-1.017 1.657-1.13 1.791 0 0-.752.888-2.076 1.485-1.194.54-2.242.526-2.556.54 0 0-1.812.071-3.443-.989l-.008-.006a6.246 6.246 0 0 1-.485-.527 6.257 6.257 0 0 1-.92-1.602c-.13-.372-.4-1.265-.363-2.131.065-1.527.603-2.464.745-2.7a6.414 6.414 0 0 1 1.446-1.692 6.1 6.1 0 0 1 1.718-.975 5.977 5.977 0 0 1 2.132-.43v2.532s-1.34-.425-2.413.328c-.75.557-1.148 1.1-1.265 2.07-.005.715.177 1.725 1.18 2.4.117.073.232.139.344.197.175.227.388.425.63.587.98.62 1.8.663 2.85.26.7-.27 1.226-.876 1.47-1.548.153-.42.151-.842.151-1.279V3.035h2.442c.101.573.38 1.39 1.118 2.2.296.305.63.575.994.803.107.112.657.661 1.362.998.364.175.749.309 1.145.399Z"/><path fill="#69C9D0" d="M3.367 17.068v.002l.06.164c-.006-.02-.029-.077-.06-.166ZM7.885 10.344a6.1 6.1 0 0 0-1.719.975 6.413 6.413 0 0 0-1.445 1.697c-.142.234-.68 1.172-.745 2.699-.037.865.234 1.759.363 2.131a6.276 6.276 0 0 1-.972-.779v-.002c-.13-.372-.401-1.266-.363-2.133.065-1.527.602-2.464.744-2.699a6.407 6.407 0 0 1 1.446-1.696 6.088 6.088 0 0 1 1.718-.975 6.08 6.08 0 0 1 3.107-.369v.722a5.978 5.978 0 0 0-2.134.429Z"/><path fill="#69C9D0" d="M15.408 3.035h-2.442v12.427c0 .437 0 .858-.151 1.279-.247.672-.771 1.278-1.47 1.547-1.05.404-1.87.36-2.85-.26a2.631 2.631 0 0 1-.631-.585c.833.426 1.58.418 2.504.063.7-.27 1.224-.876 1.47-1.548.154-.42.152-.842.152-1.278V2.25h3.372s-.038.309.046.785Zm4.617 3.708v.692a5.466 5.466 0 0 1-1.143-.398c-.705-.338-1.255-.887-1.362-.999.125.079.254.15.387.214.858.41 1.702.533 2.118.491Z"/></svg>