<svg width="596" height="597" viewBox="0 0 596 597" fill="none" xmlns="http://www.w3.org/2000/svg">
<path d="M0 59.796C98.5325 59.796 178.408 139.892 178.408 238.693C178.408 337.497 98.5325 417.592 0 417.592M0 292.364C29.5595 292.364 53.5221 268.335 53.5221 238.693C53.5221 209.053 29.5595 185.025 0 185.025M596 357.599C565.417 367.278 532.849 372.5 499.058 372.5C321.967 372.5 178.408 229.073 178.408 52.1505C178.408 34.3919 179.854 16.9709 182.635 0M381.866 0C374.754 15.9301 370.8 33.5781 370.8 52.1505C370.8 122.92 428.223 180.29 499.058 180.29C537.775 180.29 572.483 163.153 596 136.057M31.3684 596C46.196 462.012 159.915 357.796 298.001 357.796C436.085 357.796 549.805 462.012 564.632 596M372.78 596C360.936 566.34 331.917 545.382 298.001 545.382C264.082 545.382 235.066 566.34 223.22 596" stroke="url(#paint0_linear_164861_38640)" stroke-opacity="0.08" stroke-width="2"/>
<defs>
<linearGradient id="paint0_linear_164861_38640" x1="596" y1="5.26309e-05" x2="154.5" y2="454.5" gradientUnits="userSpaceOnUse">
<stop offset="0.653276" stop-color="white"/>
<stop offset="1" stop-color="white" stop-opacity="0"/>
</linearGradient>
</defs>
</svg>
