<svg xmlns="http://www.w3.org/2000/svg" width="14" height="14" fill="none" viewBox="0 0 14 14"><path fill="currentColor" fill-rule="evenodd" d="M7 14A7 7 0 1 0 7 0a7 7 0 0 0 0 14Zm1.25-3.406.112-.457a1.936 1.936 0 0 1-.28.093 1.316 1.316 0 0 1-.345.054c-.216 0-.368-.036-.456-.107-.088-.071-.132-.205-.132-.401a3.924 3.924 0 0 1 .133-.752l.417-1.478c.041-.135.069-.285.084-.447.015-.163.023-.276.023-.34a.97.97 0 0 0-.328-.76c-.218-.195-.53-.292-.933-.292-.224 0-.461.04-.712.12-.251.079-.514.174-.788.286l-.112.457c.081-.03.179-.062.293-.096.113-.034.225-.05.333-.05.221 0 .37.037.448.111.078.075.118.207.118.396 0 .105-.013.222-.038.348a6.962 6.962 0 0 1-.095.404l-.419 1.483a4.44 4.44 0 0 0-.082.42 2.67 2.67 0 0 0-.025.363c0 .304.113.556.338.754.225.198.541.297.947.297.264 0 .496-.035.696-.104.2-.07.467-.17.803-.302Zm-.075-6.002c.195-.18.292-.4.292-.658a.873.873 0 0 0-.292-.66A.99.99 0 0 0 7.473 3a1 1 0 0 0-.707.274.871.871 0 0 0-.295.66c0 .258.099.477.295.658.197.182.432.272.707.272.274 0 .508-.09.702-.272Z" clip-rule="evenodd"/></svg>