<svg xmlns="http://www.w3.org/2000/svg" width="24" height="24" fill="none" viewBox="0 0 24 24"><path fill="#353E47" fill-rule="evenodd" d="M7.933 9.572c-.433.624-.65 1.376-.65 2.257h-.002c0 1.11.315 1.968.945 2.573.63.605 1.436.907 2.415.907.637 0 1.173-.063 1.606-.192.686-.192 1.386-.675 2.1-1.454.051.065.14.188.27.375.125.185.217.308.275.373.056.063.152.166.286.305.134.141.289.288.467.44.217.09.402.077.554-.039.09-.076.662-.572 1.72-1.492.102-.076.152-.166.152-.267a.574.574 0 0 0-.114-.306l-.439-.584c-.089-.12-.183-.318-.275-.594a2.685 2.685 0 0 1-.145-.907V6.338c0-.05-.005-.213-.018-.486-.013-.273-.031-.454-.058-.536a13.776 13.776 0 0 1-.115-.447 1.908 1.908 0 0 0-.17-.5 3.306 3.306 0 0 0-.26-.392 3.908 3.908 0 0 0-.351-.411c-.817-.752-1.95-1.128-3.4-1.128h-.477c-1.131.063-2.122.369-2.969.917-.845.549-1.377 1.39-1.593 2.525a.542.542 0 0 0-.02.134c0 .179.109.293.324.346l2.196.268c.204-.038.331-.186.383-.44.088-.408.285-.728.591-.958.306-.231.67-.363 1.09-.402h.148c.574 0 .994.192 1.26.576.177.278.27.828.27 1.643v.325c-.778.063-1.34.113-1.68.152-1.006.128-1.853.338-2.54.632-.752.319-1.342.791-1.776 1.416Zm3.006 3.07c-.248-.303-.371-.7-.371-1.197l-.001.002c0-1.097.559-1.804 1.68-2.123.38-.1.941-.153 1.68-.153v.477c0 .407-.003.702-.01.88a3.642 3.642 0 0 1-.113.698c-.071.286-.176.55-.315.794-.293.548-.708.891-1.24 1.032a.935.935 0 0 0-.145.02c-.071.011-.124.017-.163.017-.42 0-.752-.149-1.002-.447Z" clip-rule="evenodd"/><path fill="#F90" d="M18.7 17.45a.654.654 0 0 0-.114.154v.003a.13.13 0 0 0-.019.056c-.013.026-.008.05.019.076.026.027.074.04.153.04.267-.038.56-.075.88-.114.291-.027.546-.04.761-.04.587 0 .943.078 1.07.229.05.063.076.166.076.306 0 .434-.234 1.205-.706 2.314-.038.102-.021.171.058.21a.17.17 0 0 0 .076.019c.05 0 .107-.024.173-.076.43-.37.768-.859 1.01-1.464.242-.604.363-1.13.363-1.577v-.134c0-.153-.024-.267-.076-.342-.113-.142-.458-.237-1.032-.29a1.14 1.14 0 0 0-.362-.02c-.458.014-.93.085-1.411.211-.294.076-.6.224-.92.44Z"/><path fill="#F90" d="M1.844 17.26c-.14-.09-.242-.083-.305.02a.198.198 0 0 0-.039.114c0 .063.04.129.117.19a15.474 15.474 0 0 0 4.756 2.936c1.768.694 3.645 1.043 5.63 1.043 1.287 0 2.604-.18 3.952-.535 1.35-.358 2.572-.861 3.665-1.512.357-.216.65-.408.88-.573.177-.128.212-.269.105-.421-.11-.154-.26-.19-.45-.115-.047.023-.12.055-.221.099l-.037.016-.276.114c-2.432.931-4.896 1.398-7.39 1.398-3.742 0-7.205-.926-10.387-2.774Z"/></svg>