<svg xmlns="http://www.w3.org/2000/svg" width="24" height="24" fill="none" viewBox="0 0 24 24"><path fill="#FDDD4C" d="M12 1.5C6.209 1.5 1.5 6.209 1.5 12S6.209 22.5 12 22.5 22.5 17.791 22.5 12 17.791 1.5 12 1.5Z"/><path fill="#000" d="M7.402 14.738c-.23-.348.348-.874.113-1.316a.813.813 0 0 0-.623-.447.805.805 0 0 0-.685.244c-.265.288-.306.68-.255.818.02.051.049.065.07.068.144.019.225-.35.274-.428a.494.494 0 0 1 .666-.137c.408.265.054.692.085 1.053.03.351.248.493.445.508.191.007.325-.1.359-.177.08-.185-.26.1-.45-.186ZM15.943 11.547a1.365 1.365 0 0 0-.346 0 1.321 1.321 0 0 1-.222-.527c-.084-.393-.075-.677.157-.714.233-.037.345.2.428.593.056.264.046.507-.017.648ZM13.399 11.78c.009.09.012.18.01.262.224.014.383.12.426.188.021.035.013.058.006.068-.023.037-.073.03-.178.02-.091-.011-.19-.02-.292-.015-.055.17-.22.186-.336.06-.08.025-.24.126-.287.016 0-.055.057-.134.16-.205a1.525 1.525 0 0 1-.146-.428 3.127 3.127 0 0 0-.382.1c-.049.014-.241.101-.264.004-.015-.068.09-.18.202-.26.124-.089.262-.151.405-.188-.003-.213.052-.361.207-.386.191-.03.31.117.393.391.231.064.463.224.565.39.04.063.048.113.022.139-.064.066-.42-.127-.511-.155ZM14.923 12.738c.147.071.31.043.362-.063.053-.106-.024-.25-.17-.32-.148-.072-.31-.044-.363.062-.052.106.024.25.171.32ZM15.647 12.212c.003-.162.102-.292.222-.29.119.003.214.135.211.297-.003.162-.102.291-.221.29-.12-.003-.214-.136-.212-.297Z"/><path fill="#000" fill-rule="evenodd" d="M18.884 14.196c-.001-.003.002.008 0 0 .24 0 .616.272.616.93 0 .653-.275 1.393-.34 1.558-.99 2.341-3.352 3.645-6.166 3.562-2.624-.077-4.862-1.443-5.84-3.67-.593 0-1.203-.257-1.667-.663-.49-.428-.791-.981-.85-1.559-.046-.449.01-.867.153-1.232l-.55-.46C1.723 10.565 9.595 1.93 12.112 4.096c.013.011.857.828.859.83 1.213-.509 4.466-1.477 4.47.778 0 .748-.483 1.622-1.257 2.414.895.82.659 1.983.801 3.051l.311.085c.593.165 1.015.383 1.22.597.207.214.31.42.347.663.034.196.03.541-.232.928.094.249.18.498.253.754ZM7.109 15.967c.088.002.175-.003.26-.018.92-.154 1.16-1.14 1.01-2.109-.172-1.093-.92-1.478-1.43-1.506a1.567 1.567 0 0 0-.38.027c-.908.18-1.42.943-1.32 1.933.092.896 1.01 1.651 1.86 1.673ZM5.053 12.63a2.168 2.168 0 0 1 1.367-.861c.72-1.906 1.92-3.661 3.51-4.87 1.18-.97 2.451-1.667 2.451-1.667s-.685-.784-.892-.842c-1.273-.34-4.021 1.532-5.776 4.004-.71 1-1.727 2.772-1.241 3.683.06.113.4.403.581.553Zm10.319 2.9a.05.05 0 0 1-.03.05s-1.022.469-2.647-.027c.059.487.65.671 1.062.738 2.013.342 3.895-.794 4.318-1.08.073-.05 0 .077-.014.095-.518.66-1.913 1.425-3.726 1.425-.791 0-1.582-.275-1.872-.698-.45-.656-.022-1.613.728-1.514 1.269.142 2.57.036 3.744-.502 1.024-.47 1.41-.986 1.353-1.404-.09-.648-1.051-.75-1.537-.907-.211-.069-.316-.124-.34-.516-.01-.171-.04-.77-.05-1.016-.02-.433-.073-1.025-.445-1.269a.629.629 0 0 0-.318-.1.58.58 0 0 0-.173.015l-.015.003c-.201.034-.324.135-.47.255l-.024.021c-.464.381-.856.444-1.291.425-.136-.005-.276-.019-.423-.033a11.05 11.05 0 0 0-.43-.036l-.184-.01c-.73-.037-1.512.584-1.642 1.467-.145.986.406 1.59.764 1.982.088.097.165.181.217.255.033.045.071.108.071.167 0 .072-.046.128-.092.176-.744.756-.982 1.956-.702 2.956.035.125.08.244.132.358.658 1.518 2.7 2.225 4.693 1.582 1.398-.45 2.632-1.54 2.884-3.041.06-.392-.029-.543-.148-.616-.127-.076-.279-.05-.279-.05s-.069-.467-.265-.892c-.581.452-1.33.77-1.899.932-.913.258-1.899.359-2.842.237-.382-.05-.64-.083-.75.27 1.258.455 2.59.26 2.59.26a.047.047 0 0 1 .052.042Zm-3.63-8.825c-.688.348-1.456.967-2.08 1.679-.022.025.01.06.038.04.539-.387 1.277-.746 2.245-.98 1.084-.26 2.128-.15 2.766-.007.032.008.052-.047.023-.063-.42-.233-1.067-.391-1.526-.395a.028.028 0 0 1-.022-.044c.08-.105.188-.209.287-.284.022-.017.01-.052-.019-.05-.57.034-1.874.628-1.87.606a1.98 1.98 0 0 1 .194-.465c.013-.023-.012-.048-.036-.037Z" clip-rule="evenodd"/></svg>