<svg xmlns="http://www.w3.org/2000/svg" width="24" height="24" fill="none" viewBox="0 0 24 24"><path fill="#95BF46" d="M18.934 5.589a.203.203 0 0 0-.183-.17c-.076-.007-1.689-.127-1.689-.127L15.82 4.056c-.123-.123-.363-.085-.456-.058l-.627.194c-.374-1.078-1.034-2.068-2.196-2.068l-.098.003c-.33-.437-.74-.627-1.093-.627-2.706 0-3.999 3.386-4.404 5.106l-1.894.588c-.587.184-.605.203-.682.756-.058.42-1.594 12.306-1.594 12.306L14.74 22.5l6.484-1.404S18.949 5.694 18.935 5.59Zm-4.86-1.192-1.012.313.001-.218c0-.67-.093-1.21-.242-1.637.599.076.997.757 1.254 1.542ZM12.08 2.988c.166.417.274 1.016.274 1.825v.117l-2.092.648c.403-1.555 1.158-2.306 1.818-2.59Zm-.804-.762a.61.61 0 0 1 .347.118c-.867.408-1.797 1.437-2.19 3.491l-1.653.512c.46-1.566 1.552-4.12 3.496-4.12Z"/><path fill="#5E8E3E" d="M18.751 5.419c-.076-.007-1.689-.126-1.689-.126s-1.12-1.113-1.242-1.236a.307.307 0 0 0-.173-.08L14.742 22.5l6.483-1.404S18.95 5.695 18.935 5.59a.203.203 0 0 0-.184-.17Z"/><path fill="#fff" d="m12.54 9.004-.799 2.38s-.7-.374-1.56-.374c-1.258 0-1.321.79-1.321.99 0 1.087 2.831 1.504 2.831 4.05 0 2.003-1.27 3.293-2.981 3.293-2.054 0-3.105-1.28-3.105-1.28l.55-1.818s1.08.928 1.991.928c.595 0 .838-.47.838-.812 0-1.418-2.323-1.482-2.323-3.812 0-1.96 1.406-3.859 4.245-3.859 1.094 0 1.634.314 1.634.314Z"/></svg>