<svg xmlns="http://www.w3.org/2000/svg" width="24" height="24" fill="none" viewBox="0 0 24 24"><path fill="url(#a)" d="M2.154 4.776C1.5 6.06 1.5 7.74 1.5 11.1v1.8c0 3.36 0 5.04.654 6.324a6 6 0 0 0 2.622 2.622c1.284.654 2.964.654 6.324.654h1.8c3.36 0 5.04 0 6.324-.654a6 6 0 0 0 2.622-2.622c.654-1.284.654-2.964.654-6.324v-1.8c0-3.36 0-5.04-.654-6.324a6 6 0 0 0-2.622-2.622C17.94 1.5 16.26 1.5 12.9 1.5h-1.8c-3.36 0-5.04 0-6.324.654a6 6 0 0 0-2.622 2.622Z"/><path fill="url(#b)" d="M1.699 6.21C1.5 7.34 1.5 8.84 1.5 11.1v1.8c0 3.36 0 5.04.654 6.324a6 6 0 0 0 2.622 2.622c1.284.654 2.964.654 6.324.654h1.8c3.36 0 5.04 0 6.324-.654a6 6 0 0 0 2.622-2.622c.654-1.283.654-2.964.654-6.324v-1.8c0-3.36 0-5.04-.654-6.324a6 6 0 0 0-2.505-2.56L1.699 6.21Z"/><path fill="url(#c)" d="M22.283 17.89a4.898 4.898 0 0 1-.437 1.334 6 6 0 0 1-2.622 2.622c-1.245.634-2.864.654-6.027.654h-1.153v-2.372l10.239-2.237Z"/><path fill="url(#d)" d="M12.9 1.5h-1.8c-.654 0-1.244 0-1.78.005v2.973L19.34 2.214a6.037 6.037 0 0 0-.115-.06c-.713-.363-1.547-.525-2.724-.596-.943-.058-2.105-.058-3.6-.058Z"/><path fill="url(#e)" d="M22.5 13.03c0 2.254-.004 3.74-.217 4.86l-3.561.779v-5.307l3.778-.879v.547Z"/><path fill="#fff" fill-rule="evenodd" d="M11.206 10.033c0-.482.394-.667 1.046-.667.936 0 2.118.284 3.054.791V7.253a8.096 8.096 0 0 0-3.054-.569c-2.5 0-4.162 1.31-4.162 3.498 0 3.41 4.68 2.867 4.68 4.338 0 .568-.493.754-1.183.754-1.022 0-2.327-.42-3.362-.989v2.942a8.512 8.512 0 0 0 3.362.704c2.562 0 4.323-1.273 4.323-3.485-.012-3.683-4.704-3.028-4.704-4.413Z" clip-rule="evenodd"/><defs><linearGradient id="a" x1="1.5" x2="8.397" y1="1.5" y2="6.377" gradientUnits="userSpaceOnUse"><stop stop-color="#392993"/><stop offset="1" stop-color="#4B47B9"/></linearGradient><linearGradient id="b" x1="2.291" x2="17.517" y1="6.431" y2="18.991" gradientUnits="userSpaceOnUse"><stop stop-color="#594BB9"/><stop offset="1" stop-color="#60A8F2"/></linearGradient><linearGradient id="c" x1="12.044" x2="22.5" y1="20.216" y2="22.5" gradientUnits="userSpaceOnUse"><stop stop-color="#61A2EF"/><stop offset="1" stop-color="#58E6FD"/></linearGradient><linearGradient id="d" x1="9.32" x2="22.5" y1="2.994" y2="1.5" gradientUnits="userSpaceOnUse"><stop stop-color="#534EBE"/><stop offset="1" stop-color="#6875E2"/></linearGradient><linearGradient id="e" x1="18.722" x2="22.5" y1="13.406" y2="17.931" gradientUnits="userSpaceOnUse"><stop stop-color="#71A5F3"/><stop offset="1" stop-color="#6CC3FA"/></linearGradient></defs></svg>